<svg width="632" height="636" viewBox="0 0 632 636" fill="none" xmlns="http://www.w3.org/2000/svg">
<path d="M218.845 631V629.144H220.317V621.656H218.845V619.8H224.605C225.288 619.8 225.88 619.917 226.381 620.152C226.893 620.376 227.288 620.701 227.565 621.128C227.853 621.544 227.997 622.045 227.997 622.632V622.792C227.997 623.304 227.901 623.725 227.709 624.056C227.517 624.376 227.288 624.627 227.021 624.808C226.765 624.979 226.52 625.101 226.285 625.176V625.464C226.52 625.528 226.776 625.651 227.053 625.832C227.331 626.003 227.565 626.253 227.757 626.584C227.96 626.915 228.061 627.347 228.061 627.88V628.04C228.061 628.659 227.917 629.192 227.629 629.64C227.341 630.077 226.941 630.413 226.429 630.648C225.928 630.883 225.341 631 224.669 631H218.845ZM222.429 629.08H224.413C224.872 629.08 225.24 628.968 225.517 628.744C225.805 628.52 225.949 628.2 225.949 627.784V627.624C225.949 627.208 225.811 626.888 225.533 626.664C225.256 626.44 224.883 626.328 224.413 626.328H222.429V629.08ZM222.429 624.408H224.381C224.819 624.408 225.176 624.296 225.453 624.072C225.741 623.848 225.885 623.539 225.885 623.144V622.984C225.885 622.579 225.747 622.269 225.469 622.056C225.192 621.832 224.829 621.72 224.381 621.72H222.429V624.408ZM229.79 631V619.8H231.902V629.08H237.022V631H229.79ZM237.694 631L240.638 619.8H244.318L247.262 631H245.086L244.478 628.536H240.478L239.87 631H237.694ZM240.974 626.584H243.982L242.622 621.128H242.334L240.974 626.584ZM252.765 631.224C251.378 631.224 250.28 630.84 249.469 630.072C248.658 629.293 248.253 628.184 248.253 626.744V624.056C248.253 622.616 248.658 621.512 249.469 620.744C250.28 619.965 251.378 619.576 252.765 619.576C254.141 619.576 255.202 619.955 255.949 620.712C256.706 621.459 257.085 622.488 257.085 623.8V623.896H255.005V623.736C255.005 623.075 254.818 622.531 254.445 622.104C254.082 621.677 253.522 621.464 252.765 621.464C252.018 621.464 251.432 621.693 251.005 622.152C250.578 622.611 250.365 623.235 250.365 624.024V626.776C250.365 627.555 250.578 628.179 251.005 628.648C251.432 629.107 252.018 629.336 252.765 629.336C253.522 629.336 254.082 629.123 254.445 628.696C254.818 628.259 255.005 627.715 255.005 627.064V626.776H257.085V627C257.085 628.312 256.706 629.347 255.949 630.104C255.202 630.851 254.141 631.224 252.765 631.224ZM258.806 631V619.8H260.918V624.248H261.206L264.838 619.8H267.542L262.87 625.32L267.702 631H264.918L261.206 626.456H260.918V631H258.806ZM272.884 631V619.8H274.996V629.08H280.116V631H272.884ZM280.788 631L283.732 619.8H287.412L290.356 631H288.18L287.572 628.536H283.572L282.964 631H280.788ZM284.068 626.584H287.076L285.716 621.128H285.428L284.068 626.584ZM293.42 631V627.144L289.612 619.8H291.964L294.332 624.6H294.62L296.988 619.8H299.34L295.532 627.144V631H293.42ZM300.525 631V619.8H307.725V621.72H302.637V624.392H307.277V626.312H302.637V629.08H307.821V631H300.525ZM309.384 631V619.8H314.248C314.952 619.8 315.565 619.923 316.088 620.168C316.611 620.413 317.016 620.76 317.304 621.208C317.592 621.656 317.736 622.184 317.736 622.792V622.984C317.736 623.656 317.576 624.2 317.256 624.616C316.936 625.032 316.541 625.336 316.072 625.528V625.816C316.499 625.837 316.829 625.987 317.064 626.264C317.299 626.531 317.416 626.888 317.416 627.336V631H315.304V627.64C315.304 627.384 315.235 627.176 315.096 627.016C314.968 626.856 314.749 626.776 314.44 626.776H311.496V631H309.384ZM311.496 624.856H314.024C314.525 624.856 314.915 624.723 315.192 624.456C315.48 624.179 315.624 623.816 315.624 623.368V623.208C315.624 622.76 315.485 622.403 315.208 622.136C314.931 621.859 314.536 621.72 314.024 621.72H311.496V624.856ZM323.556 631V619.8H330.596V621.72H325.668V624.424H330.212V626.344H325.668V631H323.556ZM336.361 631.224C334.953 631.224 333.833 630.84 333.001 630.072C332.169 629.293 331.753 628.184 331.753 626.744V624.056C331.753 622.616 332.169 621.512 333.001 620.744C333.833 619.965 334.953 619.576 336.361 619.576C337.769 619.576 338.889 619.965 339.721 620.744C340.553 621.512 340.969 622.616 340.969 624.056V626.744C340.969 628.184 340.553 629.293 339.721 630.072C338.889 630.84 337.769 631.224 336.361 631.224ZM336.361 629.336C337.15 629.336 337.764 629.107 338.201 628.648C338.638 628.189 338.857 627.576 338.857 626.808V623.992C338.857 623.224 338.638 622.611 338.201 622.152C337.764 621.693 337.15 621.464 336.361 621.464C335.582 621.464 334.969 621.693 334.521 622.152C334.084 622.611 333.865 623.224 333.865 623.992V626.808C333.865 627.576 334.084 628.189 334.521 628.648C334.969 629.107 335.582 629.336 336.361 629.336ZM342.822 631V619.8H347.686C348.39 619.8 349.003 619.923 349.526 620.168C350.048 620.413 350.454 620.76 350.742 621.208C351.03 621.656 351.174 622.184 351.174 622.792V622.984C351.174 623.656 351.014 624.2 350.694 624.616C350.374 625.032 349.979 625.336 349.51 625.528V625.816C349.936 625.837 350.267 625.987 350.502 626.264C350.736 626.531 350.854 626.888 350.854 627.336V631H348.742V627.64C348.742 627.384 348.672 627.176 348.534 627.016C348.406 626.856 348.187 626.776 347.878 626.776H344.934V631H342.822ZM344.934 624.856H347.462C347.963 624.856 348.352 624.723 348.63 624.456C348.918 624.179 349.062 623.816 349.062 623.368V623.208C349.062 622.76 348.923 622.403 348.646 622.136C348.368 621.859 347.974 621.72 347.462 621.72H344.934V624.856ZM356.993 631V619.8H364.194V621.72H359.106V624.392H363.746V626.312H359.106V629.08H364.29V631H356.993ZM365.149 631L368.429 625.352L365.181 619.8H367.581L369.805 623.848H370.093L372.317 619.8H374.717L371.469 625.352L374.749 631H372.349L370.093 626.856H369.805L367.549 631H365.149ZM376.15 631V619.8H380.758C381.462 619.8 382.08 619.944 382.614 620.232C383.158 620.509 383.579 620.904 383.878 621.416C384.187 621.928 384.342 622.536 384.342 623.24V623.464C384.342 624.157 384.182 624.765 383.862 625.288C383.552 625.8 383.126 626.2 382.582 626.488C382.048 626.765 381.44 626.904 380.758 626.904H378.262V631H376.15ZM378.262 624.984H380.55C381.051 624.984 381.456 624.845 381.766 624.568C382.075 624.291 382.23 623.912 382.23 623.432V623.272C382.23 622.792 382.075 622.413 381.766 622.136C381.456 621.859 381.051 621.72 380.55 621.72H378.262V624.984ZM390.158 631.224C388.75 631.224 387.63 630.84 386.798 630.072C385.966 629.293 385.55 628.184 385.55 626.744V624.056C385.55 622.616 385.966 621.512 386.798 620.744C387.63 619.965 388.75 619.576 390.158 619.576C391.566 619.576 392.686 619.965 393.518 620.744C394.35 621.512 394.766 622.616 394.766 624.056V626.744C394.766 628.184 394.35 629.293 393.518 630.072C392.686 630.84 391.566 631.224 390.158 631.224ZM390.158 629.336C390.947 629.336 391.561 629.107 391.998 628.648C392.435 628.189 392.654 627.576 392.654 626.808V623.992C392.654 623.224 392.435 622.611 391.998 622.152C391.561 621.693 390.947 621.464 390.158 621.464C389.379 621.464 388.766 621.693 388.318 622.152C387.881 622.611 387.662 623.224 387.662 623.992V626.808C387.662 627.576 387.881 628.189 388.318 628.648C388.766 629.107 389.379 629.336 390.158 629.336ZM396.618 631V619.8H401.483C402.187 619.8 402.8 619.923 403.323 620.168C403.845 620.413 404.251 620.76 404.539 621.208C404.827 621.656 404.97 622.184 404.97 622.792V622.984C404.97 623.656 404.811 624.2 404.491 624.616C404.171 625.032 403.776 625.336 403.307 625.528V625.816C403.733 625.837 404.064 625.987 404.299 626.264C404.533 626.531 404.651 626.888 404.651 627.336V631H402.539V627.64C402.539 627.384 402.469 627.176 402.331 627.016C402.203 626.856 401.984 626.776 401.675 626.776H398.731V631H396.618ZM398.731 624.856H401.259C401.76 624.856 402.149 624.723 402.427 624.456C402.715 624.179 402.859 623.816 402.859 623.368V623.208C402.859 622.76 402.72 622.403 402.443 622.136C402.165 621.859 401.771 621.72 401.259 621.72H398.731V624.856ZM409.132 631V621.72H405.868V619.8H414.508V621.72H411.244V631H409.132Z" fill="white"/>
<g filter="url(#filter0_d_5_6222)">
<mask id="path-2-inside-1_5_6222" fill="white">
<path fill-rule="evenodd" clip-rule="evenodd" d="M592 0C614.091 0 632 17.9086 632 40V544C632 566.091 614.091 584 592 584H40C17.9086 584 0 566.091 0 544V40C0 17.9086 17.9086 0 40 0H592ZM580 460C562.327 460 548 474.327 548 492C548 509.673 562.327 524 580 524C597.673 524 612 509.673 612 492C612 474.327 597.673 460 580 460ZM492 460C474.327 460 460 474.327 460 492C460 509.673 474.327 524 492 524C509.673 524 524 509.673 524 492C524 474.327 509.673 460 492 460ZM404 460C386.327 460 372 474.327 372 492C372 509.673 386.327 524 404 524C421.673 524 436 509.673 436 492C436 474.327 421.673 460 404 460ZM228 460C210.327 460 196 474.327 196 492C196 509.673 210.327 524 228 524C245.673 524 260 509.673 260 492C260 474.327 245.673 460 228 460ZM316 460C298.327 460 284 474.327 284 492C284 509.673 298.327 524 316 524C333.673 524 348 509.673 348 492C348 474.327 333.673 460 316 460ZM140 460C122.327 460 108 474.327 108 492C108 509.673 122.327 524 140 524C157.673 524 172 509.673 172 492C172 474.504 157.958 460.287 140.529 460.004L140 460ZM52 460C34.3269 460 20 474.327 20 492C20 509.673 34.3269 524 52 524C69.6731 524 84 509.673 84 492C84 474.327 69.6731 460 52 460ZM580 372C562.327 372 548 386.327 548 404C548 421.673 562.327 436 580 436C597.673 436 612 421.673 612 404C612 386.327 597.673 372 580 372ZM492 372C474.327 372 460 386.327 460 404C460 421.673 474.327 436 492 436C509.673 436 524 421.673 524 404C524 386.327 509.673 372 492 372ZM404 372C386.327 372 372 386.327 372 404C372 421.673 386.327 436 404 436C421.673 436 436 421.673 436 404C436 386.327 421.673 372 404 372ZM316 372C298.327 372 284 386.327 284 404C284 421.673 298.327 436 316 436C333.673 436 348 421.673 348 404C348 386.327 333.673 372 316 372ZM228 372C210.327 372 196 386.327 196 404C196 421.673 210.327 436 228 436C245.673 436 260 421.673 260 404C260 386.327 245.673 372 228 372ZM140 372C122.327 372 108 386.327 108 404C108 421.673 122.327 436 140 436C157.673 436 172 421.673 172 404C172 386.327 157.673 372 140 372ZM52 372C34.3269 372 20 386.327 20 404C20 421.673 34.3269 436 52 436C69.6731 436 84 421.673 84 404C84 386.327 69.6731 372 52 372ZM52 284C34.3269 284 20 298.327 20 316C20 333.673 34.3269 348 52 348C69.6731 348 84 333.673 84 316C84 298.327 69.6731 284 52 284ZM140 284C122.327 284 108 298.327 108 316C108 333.673 122.327 348 140 348C157.673 348 172 333.673 172 316C172 298.327 157.673 284 140 284ZM228 284C210.327 284 196 298.327 196 316C196 333.673 210.327 348 228 348C245.673 348 260 333.673 260 316C260 298.327 245.673 284 228 284ZM316 284C298.327 284 284 298.327 284 316C284 333.673 298.327 348 316 348C333.673 348 348 333.673 348 316C348 298.327 333.673 284 316 284ZM404 284C386.327 284 372 298.327 372 316C372 333.673 386.327 348 404 348C421.673 348 436 333.673 436 316C436 298.327 421.673 284 404 284ZM492 284C474.327 284 460 298.327 460 316C460 333.673 474.327 348 492 348C509.673 348 524 333.673 524 316C524 298.327 509.673 284 492 284ZM580 284C562.327 284 548 298.327 548 316C548 333.673 562.327 348 580 348C597.673 348 612 333.673 612 316C612 298.327 597.673 284 580 284ZM140 196C122.327 196 108 210.327 108 228C108 245.673 122.327 260 140 260C157.673 260 172 245.673 172 228C172 210.327 157.673 196 140 196ZM228 196C210.327 196 196 210.327 196 228C196 245.673 210.327 260 228 260C245.673 260 260 245.673 260 228C260 210.327 245.673 196 228 196ZM316 196C298.327 196 284 210.327 284 228C284 245.673 298.327 260 316 260C333.673 260 348 245.673 348 228C348 210.327 333.673 196 316 196ZM404 196C386.327 196 372 210.327 372 228C372 245.673 386.327 260 404 260C421.673 260 436 245.673 436 228C436 210.327 421.673 196 404 196ZM492 196C474.327 196 460 210.327 460 228C460 245.673 474.327 260 492 260C509.673 260 524 245.673 524 228C524 210.327 509.673 196 492 196ZM580 196C562.327 196 548 210.327 548 228C548 245.673 562.327 260 580 260C597.673 260 612 245.673 612 228C612 210.327 597.673 196 580 196ZM52 196C34.3269 196 20 210.327 20 228C20 245.673 34.3269 260 52 260C69.6731 260 84 245.673 84 228C84 210.327 69.6731 196 52 196ZM580 108C562.327 108 548 122.327 548 140C548 157.673 562.327 172 580 172C597.673 172 612 157.673 612 140C612 122.327 597.673 108 580 108ZM492 108C474.327 108 460 122.327 460 140C460 157.673 474.327 172 492 172C509.673 172 524 157.673 524 140C524 122.327 509.673 108 492 108ZM404 108C386.327 108 372 122.327 372 140C372 157.673 386.327 172 404 172C421.673 172 436 157.673 436 140C436 122.327 421.673 108 404 108ZM316 108C298.327 108 284 122.327 284 140C284 157.673 298.327 172 316 172C333.673 172 348 157.673 348 140C348 122.327 333.673 108 316 108ZM228 108C210.327 108 196 122.327 196 140C196 157.673 210.327 172 228 172C245.673 172 260 157.673 260 140C260 122.327 245.673 108 228 108ZM140 108C122.327 108 108 122.327 108 140C108 157.673 122.327 172 140 172C157.673 172 172 157.673 172 140C172 122.327 157.673 108 140 108ZM52 108C34.3269 108 20 122.327 20 140C20 157.673 34.3269 172 52 172C69.6731 172 84 157.673 84 140C84 122.327 69.6731 108 52 108ZM580 20C562.327 20 548 34.3269 548 52C548 69.6731 562.327 84 580 84C597.673 84 612 69.6731 612 52C612 34.3269 597.673 20 580 20ZM492 20C474.327 20 460 34.3269 460 52C460 69.6731 474.327 84 492 84C509.673 84 524 69.6731 524 52C524 34.3269 509.673 20 492 20ZM404 20C386.327 20 372 34.3269 372 52C372 69.6731 386.327 84 404 84C421.673 84 436 69.6731 436 52C436 34.3269 421.673 20 404 20ZM316 20C298.327 20 284 34.3269 284 52C284 69.6731 298.327 84 316 84C333.673 84 348 69.6731 348 52C348 34.3269 333.673 20 316 20ZM228 20C210.327 20 196 34.3269 196 52C196 69.6731 210.327 84 228 84C245.673 84 260 69.6731 260 52C260 34.3269 245.673 20 228 20ZM140 20C122.327 20 108 34.3269 108 52C108 69.6731 122.327 84 140 84C157.673 84 172 69.6731 172 52C172 34.3269 157.673 20 140 20ZM52 20C34.3269 20 20 34.3269 20 52C20 69.6731 34.3269 84 52 84C69.6731 84 84 69.6731 84 52C84 34.3269 69.6731 20 52 20Z"/>
</mask>
<path fill-rule="evenodd" clip-rule="evenodd" d="M592 0C614.091 0 632 17.9086 632 40V544C632 566.091 614.091 584 592 584H40C17.9086 584 0 566.091 0 544V40C0 17.9086 17.9086 0 40 0H592ZM580 460C562.327 460 548 474.327 548 492C548 509.673 562.327 524 580 524C597.673 524 612 509.673 612 492C612 474.327 597.673 460 580 460ZM492 460C474.327 460 460 474.327 460 492C460 509.673 474.327 524 492 524C509.673 524 524 509.673 524 492C524 474.327 509.673 460 492 460ZM404 460C386.327 460 372 474.327 372 492C372 509.673 386.327 524 404 524C421.673 524 436 509.673 436 492C436 474.327 421.673 460 404 460ZM228 460C210.327 460 196 474.327 196 492C196 509.673 210.327 524 228 524C245.673 524 260 509.673 260 492C260 474.327 245.673 460 228 460ZM316 460C298.327 460 284 474.327 284 492C284 509.673 298.327 524 316 524C333.673 524 348 509.673 348 492C348 474.327 333.673 460 316 460ZM140 460C122.327 460 108 474.327 108 492C108 509.673 122.327 524 140 524C157.673 524 172 509.673 172 492C172 474.504 157.958 460.287 140.529 460.004L140 460ZM52 460C34.3269 460 20 474.327 20 492C20 509.673 34.3269 524 52 524C69.6731 524 84 509.673 84 492C84 474.327 69.6731 460 52 460ZM580 372C562.327 372 548 386.327 548 404C548 421.673 562.327 436 580 436C597.673 436 612 421.673 612 404C612 386.327 597.673 372 580 372ZM492 372C474.327 372 460 386.327 460 404C460 421.673 474.327 436 492 436C509.673 436 524 421.673 524 404C524 386.327 509.673 372 492 372ZM404 372C386.327 372 372 386.327 372 404C372 421.673 386.327 436 404 436C421.673 436 436 421.673 436 404C436 386.327 421.673 372 404 372ZM316 372C298.327 372 284 386.327 284 404C284 421.673 298.327 436 316 436C333.673 436 348 421.673 348 404C348 386.327 333.673 372 316 372ZM228 372C210.327 372 196 386.327 196 404C196 421.673 210.327 436 228 436C245.673 436 260 421.673 260 404C260 386.327 245.673 372 228 372ZM140 372C122.327 372 108 386.327 108 404C108 421.673 122.327 436 140 436C157.673 436 172 421.673 172 404C172 386.327 157.673 372 140 372ZM52 372C34.3269 372 20 386.327 20 404C20 421.673 34.3269 436 52 436C69.6731 436 84 421.673 84 404C84 386.327 69.6731 372 52 372ZM52 284C34.3269 284 20 298.327 20 316C20 333.673 34.3269 348 52 348C69.6731 348 84 333.673 84 316C84 298.327 69.6731 284 52 284ZM140 284C122.327 284 108 298.327 108 316C108 333.673 122.327 348 140 348C157.673 348 172 333.673 172 316C172 298.327 157.673 284 140 284ZM228 284C210.327 284 196 298.327 196 316C196 333.673 210.327 348 228 348C245.673 348 260 333.673 260 316C260 298.327 245.673 284 228 284ZM316 284C298.327 284 284 298.327 284 316C284 333.673 298.327 348 316 348C333.673 348 348 333.673 348 316C348 298.327 333.673 284 316 284ZM404 284C386.327 284 372 298.327 372 316C372 333.673 386.327 348 404 348C421.673 348 436 333.673 436 316C436 298.327 421.673 284 404 284ZM492 284C474.327 284 460 298.327 460 316C460 333.673 474.327 348 492 348C509.673 348 524 333.673 524 316C524 298.327 509.673 284 492 284ZM580 284C562.327 284 548 298.327 548 316C548 333.673 562.327 348 580 348C597.673 348 612 333.673 612 316C612 298.327 597.673 284 580 284ZM140 196C122.327 196 108 210.327 108 228C108 245.673 122.327 260 140 260C157.673 260 172 245.673 172 228C172 210.327 157.673 196 140 196ZM228 196C210.327 196 196 210.327 196 228C196 245.673 210.327 260 228 260C245.673 260 260 245.673 260 228C260 210.327 245.673 196 228 196ZM316 196C298.327 196 284 210.327 284 228C284 245.673 298.327 260 316 260C333.673 260 348 245.673 348 228C348 210.327 333.673 196 316 196ZM404 196C386.327 196 372 210.327 372 228C372 245.673 386.327 260 404 260C421.673 260 436 245.673 436 228C436 210.327 421.673 196 404 196ZM492 196C474.327 196 460 210.327 460 228C460 245.673 474.327 260 492 260C509.673 260 524 245.673 524 228C524 210.327 509.673 196 492 196ZM580 196C562.327 196 548 210.327 548 228C548 245.673 562.327 260 580 260C597.673 260 612 245.673 612 228C612 210.327 597.673 196 580 196ZM52 196C34.3269 196 20 210.327 20 228C20 245.673 34.3269 260 52 260C69.6731 260 84 245.673 84 228C84 210.327 69.6731 196 52 196ZM580 108C562.327 108 548 122.327 548 140C548 157.673 562.327 172 580 172C597.673 172 612 157.673 612 140C612 122.327 597.673 108 580 108ZM492 108C474.327 108 460 122.327 460 140C460 157.673 474.327 172 492 172C509.673 172 524 157.673 524 140C524 122.327 509.673 108 492 108ZM404 108C386.327 108 372 122.327 372 140C372 157.673 386.327 172 404 172C421.673 172 436 157.673 436 140C436 122.327 421.673 108 404 108ZM316 108C298.327 108 284 122.327 284 140C284 157.673 298.327 172 316 172C333.673 172 348 157.673 348 140C348 122.327 333.673 108 316 108ZM228 108C210.327 108 196 122.327 196 140C196 157.673 210.327 172 228 172C245.673 172 260 157.673 260 140C260 122.327 245.673 108 228 108ZM140 108C122.327 108 108 122.327 108 140C108 157.673 122.327 172 140 172C157.673 172 172 157.673 172 140C172 122.327 157.673 108 140 108ZM52 108C34.3269 108 20 122.327 20 140C20 157.673 34.3269 172 52 172C69.6731 172 84 157.673 84 140C84 122.327 69.6731 108 52 108ZM580 20C562.327 20 548 34.3269 548 52C548 69.6731 562.327 84 580 84C597.673 84 612 69.6731 612 52C612 34.3269 597.673 20 580 20ZM492 20C474.327 20 460 34.3269 460 52C460 69.6731 474.327 84 492 84C509.673 84 524 69.6731 524 52C524 34.3269 509.673 20 492 20ZM404 20C386.327 20 372 34.3269 372 52C372 69.6731 386.327 84 404 84C421.673 84 436 69.6731 436 52C436 34.3269 421.673 20 404 20ZM316 20C298.327 20 284 34.3269 284 52C284 69.6731 298.327 84 316 84C333.673 84 348 69.6731 348 52C348 34.3269 333.673 20 316 20ZM228 20C210.327 20 196 34.3269 196 52C196 69.6731 210.327 84 228 84C245.673 84 260 69.6731 260 52C260 34.3269 245.673 20 228 20ZM140 20C122.327 20 108 34.3269 108 52C108 69.6731 122.327 84 140 84C157.673 84 172 69.6731 172 52C172 34.3269 157.673 20 140 20ZM52 20C34.3269 20 20 34.3269 20 52C20 69.6731 34.3269 84 52 84C69.6731 84 84 69.6731 84 52C84 34.3269 69.6731 20 52 20Z" fill="black"/>
<path d="M140 460L140.024 457L140.012 457H140V460ZM140.529 460.004L140.578 457.005L140.566 457.004L140.553 457.004L140.529 460.004ZM592 3C612.435 3 629 19.5655 629 40H635C635 16.2518 615.748 -3 592 -3V3ZM629 40V544H635V40H629ZM629 544C629 564.435 612.435 581 592 581V587C615.748 587 635 567.748 635 544H629ZM592 581H40V587H592V581ZM40 581C19.5655 581 3 564.435 3 544H-3C-3 567.748 16.2518 587 40 587V581ZM3 544V40H-3V544H3ZM3 40C3 19.5655 19.5655 3 40 3V-3C16.2518 -3 -3 16.2518 -3 40H3ZM40 3H592V-3H40V3ZM580 457C560.67 457 545 472.67 545 492H551C551 475.984 563.984 463 580 463V457ZM545 492C545 511.33 560.67 527 580 527V521C563.984 521 551 508.016 551 492H545ZM580 527C599.33 527 615 511.33 615 492H609C609 508.016 596.016 521 580 521V527ZM615 492C615 472.67 599.33 457 580 457V463C596.016 463 609 475.984 609 492H615ZM492 457C472.67 457 457 472.67 457 492H463C463 475.984 475.984 463 492 463V457ZM457 492C457 511.33 472.67 527 492 527V521C475.984 521 463 508.016 463 492H457ZM492 527C511.33 527 527 511.33 527 492H521C521 508.016 508.016 521 492 521V527ZM527 492C527 472.67 511.33 457 492 457V463C508.016 463 521 475.984 521 492H527ZM404 457C384.67 457 369 472.67 369 492H375C375 475.984 387.984 463 404 463V457ZM369 492C369 511.33 384.67 527 404 527V521C387.984 521 375 508.016 375 492H369ZM404 527C423.33 527 439 511.33 439 492H433C433 508.016 420.016 521 404 521V527ZM439 492C439 472.67 423.33 457 404 457V463C420.016 463 433 475.984 433 492H439ZM228 457C208.67 457 193 472.67 193 492H199C199 475.984 211.984 463 228 463V457ZM193 492C193 511.33 208.67 527 228 527V521C211.984 521 199 508.016 199 492H193ZM228 527C247.33 527 263 511.33 263 492H257C257 508.016 244.016 521 228 521V527ZM263 492C263 472.67 247.33 457 228 457V463C244.016 463 257 475.984 257 492H263ZM316 457C296.67 457 281 472.67 281 492H287C287 475.984 299.984 463 316 463V457ZM281 492C281 511.33 296.67 527 316 527V521C299.984 521 287 508.016 287 492H281ZM316 527C335.33 527 351 511.33 351 492H345C345 508.016 332.016 521 316 521V527ZM351 492C351 472.67 335.33 457 316 457V463C332.016 463 345 475.984 345 492H351ZM140 457C120.67 457 105 472.67 105 492H111C111 475.984 123.984 463 140 463V457ZM105 492C105 511.33 120.67 527 140 527V521C123.984 521 111 508.016 111 492H105ZM140 527C159.33 527 175 511.33 175 492H169C169 508.016 156.016 521 140 521V527ZM175 492C175 472.863 159.642 457.314 140.578 457.005L140.481 463.004C156.275 463.26 169 476.144 169 492H175ZM140.553 457.004L140.024 457L139.976 463L140.505 463.004L140.553 457.004ZM52 457C32.67 457 17 472.67 17 492H23C23 475.984 35.9837 463 52 463V457ZM17 492C17 511.33 32.67 527 52 527V521C35.9837 521 23 508.016 23 492H17ZM52 527C71.33 527 87 511.33 87 492H81C81 508.016 68.0163 521 52 521V527ZM87 492C87 472.67 71.33 457 52 457V463C68.0163 463 81 475.984 81 492H87ZM580 369C560.67 369 545 384.67 545 404H551C551 387.984 563.984 375 580 375V369ZM545 404C545 423.33 560.67 439 580 439V433C563.984 433 551 420.016 551 404H545ZM580 439C599.33 439 615 423.33 615 404H609C609 420.016 596.016 433 580 433V439ZM615 404C615 384.67 599.33 369 580 369V375C596.016 375 609 387.984 609 404H615ZM492 369C472.67 369 457 384.67 457 404H463C463 387.984 475.984 375 492 375V369ZM457 404C457 423.33 472.67 439 492 439V433C475.984 433 463 420.016 463 404H457ZM492 439C511.33 439 527 423.33 527 404H521C521 420.016 508.016 433 492 433V439ZM527 404C527 384.67 511.33 369 492 369V375C508.016 375 521 387.984 521 404H527ZM404 369C384.67 369 369 384.67 369 404H375C375 387.984 387.984 375 404 375V369ZM369 404C369 423.33 384.67 439 404 439V433C387.984 433 375 420.016 375 404H369ZM404 439C423.33 439 439 423.33 439 404H433C433 420.016 420.016 433 404 433V439ZM439 404C439 384.67 423.33 369 404 369V375C420.016 375 433 387.984 433 404H439ZM316 369C296.67 369 281 384.67 281 404H287C287 387.984 299.984 375 316 375V369ZM281 404C281 423.33 296.67 439 316 439V433C299.984 433 287 420.016 287 404H281ZM316 439C335.33 439 351 423.33 351 404H345C345 420.016 332.016 433 316 433V439ZM351 404C351 384.67 335.33 369 316 369V375C332.016 375 345 387.984 345 404H351ZM228 369C208.67 369 193 384.67 193 404H199C199 387.984 211.984 375 228 375V369ZM193 404C193 423.33 208.67 439 228 439V433C211.984 433 199 420.016 199 404H193ZM228 439C247.33 439 263 423.33 263 404H257C257 420.016 244.016 433 228 433V439ZM263 404C263 384.67 247.33 369 228 369V375C244.016 375 257 387.984 257 404H263ZM140 369C120.67 369 105 384.67 105 404H111C111 387.984 123.984 375 140 375V369ZM105 404C105 423.33 120.67 439 140 439V433C123.984 433 111 420.016 111 404H105ZM140 439C159.33 439 175 423.33 175 404H169C169 420.016 156.016 433 140 433V439ZM175 404C175 384.67 159.33 369 140 369V375C156.016 375 169 387.984 169 404H175ZM52 369C32.67 369 17 384.67 17 404H23C23 387.984 35.9837 375 52 375V369ZM17 404C17 423.33 32.67 439 52 439V433C35.9837 433 23 420.016 23 404H17ZM52 439C71.33 439 87 423.33 87 404H81C81 420.016 68.0163 433 52 433V439ZM87 404C87 384.67 71.33 369 52 369V375C68.0163 375 81 387.984 81 404H87ZM52 281C32.67 281 17 296.67 17 316H23C23 299.984 35.9837 287 52 287V281ZM17 316C17 335.33 32.67 351 52 351V345C35.9837 345 23 332.016 23 316H17ZM52 351C71.33 351 87 335.33 87 316H81C81 332.016 68.0163 345 52 345V351ZM87 316C87 296.67 71.33 281 52 281V287C68.0163 287 81 299.984 81 316H87ZM140 281C120.67 281 105 296.67 105 316H111C111 299.984 123.984 287 140 287V281ZM105 316C105 335.33 120.67 351 140 351V345C123.984 345 111 332.016 111 316H105ZM140 351C159.33 351 175 335.33 175 316H169C169 332.016 156.016 345 140 345V351ZM175 316C175 296.67 159.33 281 140 281V287C156.016 287 169 299.984 169 316H175ZM228 281C208.67 281 193 296.67 193 316H199C199 299.984 211.984 287 228 287V281ZM193 316C193 335.33 208.67 351 228 351V345C211.984 345 199 332.016 199 316H193ZM228 351C247.33 351 263 335.33 263 316H257C257 332.016 244.016 345 228 345V351ZM263 316C263 296.67 247.33 281 228 281V287C244.016 287 257 299.984 257 316H263ZM316 281C296.67 281 281 296.67 281 316H287C287 299.984 299.984 287 316 287V281ZM281 316C281 335.33 296.67 351 316 351V345C299.984 345 287 332.016 287 316H281ZM316 351C335.33 351 351 335.33 351 316H345C345 332.016 332.016 345 316 345V351ZM351 316C351 296.67 335.33 281 316 281V287C332.016 287 345 299.984 345 316H351ZM404 281C384.67 281 369 296.67 369 316H375C375 299.984 387.984 287 404 287V281ZM369 316C369 335.33 384.67 351 404 351V345C387.984 345 375 332.016 375 316H369ZM404 351C423.33 351 439 335.33 439 316H433C433 332.016 420.016 345 404 345V351ZM439 316C439 296.67 423.33 281 404 281V287C420.016 287 433 299.984 433 316H439ZM492 281C472.67 281 457 296.67 457 316H463C463 299.984 475.984 287 492 287V281ZM457 316C457 335.33 472.67 351 492 351V345C475.984 345 463 332.016 463 316H457ZM492 351C511.33 351 527 335.33 527 316H521C521 332.016 508.016 345 492 345V351ZM527 316C527 296.67 511.33 281 492 281V287C508.016 287 521 299.984 521 316H527ZM580 281C560.67 281 545 296.67 545 316H551C551 299.984 563.984 287 580 287V281ZM545 316C545 335.33 560.67 351 580 351V345C563.984 345 551 332.016 551 316H545ZM580 351C599.33 351 615 335.33 615 316H609C609 332.016 596.016 345 580 345V351ZM615 316C615 296.67 599.33 281 580 281V287C596.016 287 609 299.984 609 316H615ZM140 193C120.67 193 105 208.67 105 228H111C111 211.984 123.984 199 140 199V193ZM105 228C105 247.33 120.67 263 140 263V257C123.984 257 111 244.016 111 228H105ZM140 263C159.33 263 175 247.33 175 228H169C169 244.016 156.016 257 140 257V263ZM175 228C175 208.67 159.33 193 140 193V199C156.016 199 169 211.984 169 228H175ZM228 193C208.67 193 193 208.67 193 228H199C199 211.984 211.984 199 228 199V193ZM193 228C193 247.33 208.67 263 228 263V257C211.984 257 199 244.016 199 228H193ZM228 263C247.33 263 263 247.33 263 228H257C257 244.016 244.016 257 228 257V263ZM263 228C263 208.67 247.33 193 228 193V199C244.016 199 257 211.984 257 228H263ZM316 193C296.67 193 281 208.67 281 228H287C287 211.984 299.984 199 316 199V193ZM281 228C281 247.33 296.67 263 316 263V257C299.984 257 287 244.016 287 228H281ZM316 263C335.33 263 351 247.33 351 228H345C345 244.016 332.016 257 316 257V263ZM351 228C351 208.67 335.33 193 316 193V199C332.016 199 345 211.984 345 228H351ZM404 193C384.67 193 369 208.67 369 228H375C375 211.984 387.984 199 404 199V193ZM369 228C369 247.33 384.67 263 404 263V257C387.984 257 375 244.016 375 228H369ZM404 263C423.33 263 439 247.33 439 228H433C433 244.016 420.016 257 404 257V263ZM439 228C439 208.67 423.33 193 404 193V199C420.016 199 433 211.984 433 228H439ZM492 193C472.67 193 457 208.67 457 228H463C463 211.984 475.984 199 492 199V193ZM457 228C457 247.33 472.67 263 492 263V257C475.984 257 463 244.016 463 228H457ZM492 263C511.33 263 527 247.33 527 228H521C521 244.016 508.016 257 492 257V263ZM527 228C527 208.67 511.33 193 492 193V199C508.016 199 521 211.984 521 228H527ZM580 193C560.67 193 545 208.67 545 228H551C551 211.984 563.984 199 580 199V193ZM545 228C545 247.33 560.67 263 580 263V257C563.984 257 551 244.016 551 228H545ZM580 263C599.33 263 615 247.33 615 228H609C609 244.016 596.016 257 580 257V263ZM615 228C615 208.67 599.33 193 580 193V199C596.016 199 609 211.984 609 228H615ZM52 193C32.67 193 17 208.67 17 228H23C23 211.984 35.9837 199 52 199V193ZM17 228C17 247.33 32.67 263 52 263V257C35.9837 257 23 244.016 23 228H17ZM52 263C71.33 263 87 247.33 87 228H81C81 244.016 68.0163 257 52 257V263ZM87 228C87 208.67 71.33 193 52 193V199C68.0163 199 81 211.984 81 228H87ZM580 105C560.67 105 545 120.67 545 140H551C551 123.984 563.984 111 580 111V105ZM545 140C545 159.33 560.67 175 580 175V169C563.984 169 551 156.016 551 140H545ZM580 175C599.33 175 615 159.33 615 140H609C609 156.016 596.016 169 580 169V175ZM615 140C615 120.67 599.33 105 580 105V111C596.016 111 609 123.984 609 140H615ZM492 105C472.67 105 457 120.67 457 140H463C463 123.984 475.984 111 492 111V105ZM457 140C457 159.33 472.67 175 492 175V169C475.984 169 463 156.016 463 140H457ZM492 175C511.33 175 527 159.33 527 140H521C521 156.016 508.016 169 492 169V175ZM527 140C527 120.67 511.33 105 492 105V111C508.016 111 521 123.984 521 140H527ZM404 105C384.67 105 369 120.67 369 140H375C375 123.984 387.984 111 404 111V105ZM369 140C369 159.33 384.67 175 404 175V169C387.984 169 375 156.016 375 140H369ZM404 175C423.33 175 439 159.33 439 140H433C433 156.016 420.016 169 404 169V175ZM439 140C439 120.67 423.33 105 404 105V111C420.016 111 433 123.984 433 140H439ZM316 105C296.67 105 281 120.67 281 140H287C287 123.984 299.984 111 316 111V105ZM281 140C281 159.33 296.67 175 316 175V169C299.984 169 287 156.016 287 140H281ZM316 175C335.33 175 351 159.33 351 140H345C345 156.016 332.016 169 316 169V175ZM351 140C351 120.67 335.33 105 316 105V111C332.016 111 345 123.984 345 140H351ZM228 105C208.67 105 193 120.67 193 140H199C199 123.984 211.984 111 228 111V105ZM193 140C193 159.33 208.67 175 228 175V169C211.984 169 199 156.016 199 140H193ZM228 175C247.33 175 263 159.33 263 140H257C257 156.016 244.016 169 228 169V175ZM263 140C263 120.67 247.33 105 228 105V111C244.016 111 257 123.984 257 140H263ZM140 105C120.67 105 105 120.67 105 140H111C111 123.984 123.984 111 140 111V105ZM105 140C105 159.33 120.67 175 140 175V169C123.984 169 111 156.016 111 140H105ZM140 175C159.33 175 175 159.33 175 140H169C169 156.016 156.016 169 140 169V175ZM175 140C175 120.67 159.33 105 140 105V111C156.016 111 169 123.984 169 140H175ZM52 105C32.67 105 17 120.67 17 140H23C23 123.984 35.9837 111 52 111V105ZM17 140C17 159.33 32.67 175 52 175V169C35.9837 169 23 156.016 23 140H17ZM52 175C71.33 175 87 159.33 87 140H81C81 156.016 68.0163 169 52 169V175ZM87 140C87 120.67 71.33 105 52 105V111C68.0163 111 81 123.984 81 140H87ZM580 17C560.67 17 545 32.67 545 52H551C551 35.9837 563.984 23 580 23V17ZM545 52C545 71.33 560.67 87 580 87V81C563.984 81 551 68.0163 551 52H545ZM580 87C599.33 87 615 71.33 615 52H609C609 68.0163 596.016 81 580 81V87ZM615 52C615 32.67 599.33 17 580 17V23C596.016 23 609 35.9837 609 52H615ZM492 17C472.67 17 457 32.67 457 52H463C463 35.9837 475.984 23 492 23V17ZM457 52C457 71.33 472.67 87 492 87V81C475.984 81 463 68.0163 463 52H457ZM492 87C511.33 87 527 71.33 527 52H521C521 68.0163 508.016 81 492 81V87ZM527 52C527 32.67 511.33 17 492 17V23C508.016 23 521 35.9837 521 52H527ZM404 17C384.67 17 369 32.67 369 52H375C375 35.9837 387.984 23 404 23V17ZM369 52C369 71.33 384.67 87 404 87V81C387.984 81 375 68.0163 375 52H369ZM404 87C423.33 87 439 71.33 439 52H433C433 68.0163 420.016 81 404 81V87ZM439 52C439 32.67 423.33 17 404 17V23C420.016 23 433 35.9837 433 52H439ZM316 17C296.67 17 281 32.67 281 52H287C287 35.9837 299.984 23 316 23V17ZM281 52C281 71.33 296.67 87 316 87V81C299.984 81 287 68.0163 287 52H281ZM316 87C335.33 87 351 71.33 351 52H345C345 68.0163 332.016 81 316 81V87ZM351 52C351 32.67 335.33 17 316 17V23C332.016 23 345 35.9837 345 52H351ZM228 17C208.67 17 193 32.67 193 52H199C199 35.9837 211.984 23 228 23V17ZM193 52C193 71.33 208.67 87 228 87V81C211.984 81 199 68.0163 199 52H193ZM228 87C247.33 87 263 71.33 263 52H257C257 68.0163 244.016 81 228 81V87ZM263 52C263 32.67 247.33 17 228 17V23C244.016 23 257 35.9837 257 52H263ZM140 17C120.67 17 105 32.67 105 52H111C111 35.9837 123.984 23 140 23V17ZM105 52C105 71.33 120.67 87 140 87V81C123.984 81 111 68.0163 111 52H105ZM140 87C159.33 87 175 71.33 175 52H169C169 68.0163 156.016 81 140 81V87ZM175 52C175 32.67 159.33 17 140 17V23C156.016 23 169 35.9837 169 52H175ZM52 17C32.67 17 17 32.67 17 52H23C23 35.9837 35.9837 23 52 23V17ZM17 52C17 71.33 32.67 87 52 87V81C35.9837 81 23 68.0163 23 52H17ZM52 87C71.33 87 87 71.33 87 52H81C81 68.0163 68.0163 81 52 81V87ZM87 52C87 32.67 71.33 17 52 17V23C68.0163 23 81 35.9837 81 52H87Z" fill="black" mask="url(#path-2-inside-1_5_6222)"/>
</g>
<defs>
<filter id="filter0_d_5_6222" x="0" y="0" width="632" height="594" filterUnits="userSpaceOnUse" color-interpolation-filters="sRGB">
<feFlood flood-opacity="0" result="BackgroundImageFix"/>
<feColorMatrix in="SourceAlpha" type="matrix" values="0 0 0 0 0 0 0 0 0 0 0 0 0 0 0 0 0 0 127 0" result="hardAlpha"/>
<feOffset dy="10"/>
<feColorMatrix type="matrix" values="0 0 0 0 0 0 0 0 0 0 0 0 0 0 0 0 0 0 1 0"/>
<feBlend mode="normal" in2="BackgroundImageFix" result="effect1_dropShadow_5_6222"/>
<feBlend mode="normal" in="SourceGraphic" in2="effect1_dropShadow_5_6222" result="shape"/>
</filter>
</defs>
</svg>
